<svg width="50" height="40" viewBox="0 0 50 40" fill="none" xmlns="http://www.w3.org/2000/svg">
<path d="M10.8359 40C18.7306 40 21.3622 37.8626 21.3622 28.3969C21.3622 18.7786 18.7306 17.2519 12.6935 17.2519C11.9195 17.2519 11.4551 17.2519 10.9907 17.4046C11.6099 11.9084 14.3963 9.00763 19.8142 8.85497V0C6.34675 0.152679 0 9.00764 0 24.7328C0 37.2519 2.47678 40 10.8359 40ZM39.6285 40C47.5232 40 50 37.8626 50 28.3969C50 18.7786 47.3684 17.2519 41.3313 17.2519C40.5573 17.2519 40.0929 17.2519 39.6285 17.4046C40.2477 11.9084 43.0341 9.00763 48.452 8.85497V0C34.9845 0.152679 28.7926 9.00764 28.7926 24.7328C28.7926 37.2519 31.2693 40 39.6285 40Z" fill="#5647EB"/>
</svg>
