<svg width="46" height="16" viewBox="0 0 46 16" fill="none" xmlns="http://www.w3.org/2000/svg">
<rect x="0.5" y="0.5" width="15" height="15" rx="1.5" stroke="#364563"/>
<g clip-path="url(#clip0_3526_21886)">
<path d="M9.88021 6.55469H6.54688V9.88802H9.88021V6.55469Z" stroke="#364563" stroke-miterlimit="10" stroke-linecap="square"/>
<path d="M4.04688 5.30469C4.04688 4.61719 4.60937 4.05469 5.29687 4.05469C5.98437 4.05469 6.54687 4.61719 6.54687 5.30469C6.54687 5.61719 6.54687 6.55469 6.54687 6.55469C6.54687 6.55469 5.67187 6.55469 5.29687 6.55469C4.60937 6.55469 4.04688 5.99219 4.04688 5.30469Z" stroke="#364563" stroke-miterlimit="10" stroke-linecap="square"/>
<path d="M12.375 5.30469C12.375 4.61719 11.8125 4.05469 11.125 4.05469C10.4375 4.05469 9.875 4.61719 9.875 5.30469C9.875 5.61719 9.875 6.55469 9.875 6.55469C9.875 6.55469 10.75 6.55469 11.125 6.55469C11.8125 6.55469 12.375 5.99219 12.375 5.30469Z" stroke="#364563" stroke-miterlimit="10" stroke-linecap="square"/>
<path d="M12.375 11.1367C12.375 11.8242 11.8125 12.3867 11.125 12.3867C10.4375 12.3867 9.875 11.8242 9.875 11.1367C9.875 10.8242 9.875 9.88672 9.875 9.88672C9.875 9.88672 10.75 9.88672 11.125 9.88672C11.8125 9.88672 12.375 10.4492 12.375 11.1367Z" stroke="#364563" stroke-miterlimit="10" stroke-linecap="square"/>
<path d="M4.04688 11.1367C4.04688 11.8242 4.60937 12.3867 5.29687 12.3867C5.98437 12.3867 6.54687 11.8242 6.54687 11.1367C6.54687 10.8242 6.54687 9.88672 6.54687 9.88672C6.54687 9.88672 5.67187 9.88672 5.29687 9.88672C4.60937 9.88672 4.04688 10.4492 4.04688 11.1367Z" stroke="#364563" stroke-miterlimit="10" stroke-linecap="square"/>
</g>
<rect x="30.5" y="0.5" width="15" height="15" rx="1.5" stroke="#364563"/>
<path d="M20 8.45083H26V7.54917H20V8.45083ZM22.5406 11H23.4594V5H22.5406V11Z" fill="#4D5E80"/>
<path d="M35.5 12V4H36.6697V7.82031H36.7644L40.0161 4H41.4886L38.3618 7.60156L41.5 12H40.0918L37.5858 8.42578L36.6697 9.51172V12H35.5Z" fill="#364563"/>
<defs>
<clipPath id="clip0_3526_21886">
<rect width="10" height="10" fill="white" transform="translate(3 3)"/>
</clipPath>
</defs>
</svg>
